<svg id="visual" viewBox="0 0 900 600" width="900" height="600" xmlns="http://www.w3.org/2000/svg" xmlns:xlink="http://www.w3.org/1999/xlink" version="1.1"><rect x="0" y="0" width="900" height="600" fill="#000000"></rect><defs><linearGradient id="grad1_0" x1="33.3%" y1="0%" x2="100%" y2="100%"><stop offset="20%" stop-color="#ffee0c" stop-opacity="1"></stop><stop offset="80%" stop-color="#ffee0c" stop-opacity="1"></stop></linearGradient></defs><defs><linearGradient id="grad1_1" x1="33.3%" y1="0%" x2="100%" y2="100%"><stop offset="20%" stop-color="#ffee0c" stop-opacity="1"></stop><stop offset="80%" stop-color="#cfc300" stop-opacity="1"></stop></linearGradient></defs><defs><linearGradient id="grad1_2" x1="33.3%" y1="0%" x2="100%" y2="100%"><stop offset="20%" stop-color="#a19900" stop-opacity="1"></stop><stop offset="80%" stop-color="#cfc300" stop-opacity="1"></stop></linearGradient></defs><defs><linearGradient id="grad1_3" x1="33.3%" y1="0%" x2="100%" y2="100%"><stop offset="20%" stop-color="#a19900" stop-opacity="1"></stop><stop offset="80%" stop-color="#747200" stop-opacity="1"></stop></linearGradient></defs><defs><linearGradient id="grad1_4" x1="33.3%" y1="0%" x2="100%" y2="100%"><stop offset="20%" stop-color="#4f4d00" stop-opacity="1"></stop><stop offset="80%" stop-color="#747200" stop-opacity="1"></stop></linearGradient></defs><defs><linearGradient id="grad1_5" x1="33.3%" y1="0%" x2="100%" y2="100%"><stop offset="20%" stop-color="#4f4d00" stop-opacity="1"></stop><stop offset="80%" stop-color="#362900" stop-opacity="1"></stop></linearGradient></defs><defs><linearGradient id="grad1_6" x1="33.3%" y1="0%" x2="100%" y2="100%"><stop offset="20%" stop-color="#000000" stop-opacity="1"></stop><stop offset="80%" stop-color="#362900" stop-opacity="1"></stop></linearGradient></defs><defs><linearGradient id="grad2_0" x1="0%" y1="0%" x2="66.7%" y2="100%"><stop offset="20%" stop-color="#ffee0c" stop-opacity="1"></stop><stop offset="80%" stop-color="#ffee0c" stop-opacity="1"></stop></linearGradient></defs><defs><linearGradient id="grad2_1" x1="0%" y1="0%" x2="66.7%" y2="100%"><stop offset="20%" stop-color="#cfc300" stop-opacity="1"></stop><stop offset="80%" stop-color="#ffee0c" stop-opacity="1"></stop></linearGradient></defs><defs><linearGradient id="grad2_2" x1="0%" y1="0%" x2="66.7%" y2="100%"><stop offset="20%" stop-color="#cfc300" stop-opacity="1"></stop><stop offset="80%" stop-color="#a19900" stop-opacity="1"></stop></linearGradient></defs><defs><linearGradient id="grad2_3" x1="0%" y1="0%" x2="66.7%" y2="100%"><stop offset="20%" stop-color="#747200" stop-opacity="1"></stop><stop offset="80%" stop-color="#a19900" stop-opacity="1"></stop></linearGradient></defs><defs><linearGradient id="grad2_4" x1="0%" y1="0%" x2="66.7%" y2="100%"><stop offset="20%" stop-color="#747200" stop-opacity="1"></stop><stop offset="80%" stop-color="#4f4d00" stop-opacity="1"></stop></linearGradient></defs><defs><linearGradient id="grad2_5" x1="0%" y1="0%" x2="66.7%" y2="100%"><stop offset="20%" stop-color="#362900" stop-opacity="1"></stop><stop offset="80%" stop-color="#4f4d00" stop-opacity="1"></stop></linearGradient></defs><defs><linearGradient id="grad2_6" x1="0%" y1="0%" x2="66.7%" y2="100%"><stop offset="20%" stop-color="#362900" stop-opacity="1"></stop><stop offset="80%" stop-color="#000000" stop-opacity="1"></stop></linearGradient></defs><g transform="translate(900, 0)"><path d="M0 351.5C-62.3 342.8 -124.6 334.1 -175.8 304.4C-226.9 274.8 -267 224.2 -294.4 170C-321.9 115.8 -336.7 57.9 -351.5 0L0 0Z" fill="#301800"></path><path d="M0 301.3C-53.4 293.8 -106.8 286.4 -150.7 261C-194.5 235.5 -228.9 192.2 -252.4 145.7C-275.9 99.2 -288.6 49.6 -301.3 0L0 0Z" fill="#403b00"></path><path d="M0 251.1C-44.5 244.9 -89 238.6 -125.6 217.5C-162.1 196.3 -190.7 160.2 -210.3 121.4C-229.9 82.7 -240.5 41.3 -251.1 0L0 0Z" fill="#605f00"></path><path d="M0 200.9C-35.6 195.9 -71.2 190.9 -100.4 174C-129.7 157 -152.6 128.1 -168.3 97.1C-183.9 66.2 -192.4 33.1 -200.9 0L0 0Z" fill="#8a8600"></path><path d="M0 150.7C-26.7 146.9 -53.4 143.2 -75.3 130.5C-97.3 117.8 -114.4 96.1 -126.2 72.9C-138 49.6 -144.3 24.8 -150.7 0L0 0Z" fill="#b8ae00"></path><path d="M0 100.4C-17.8 97.9 -35.6 95.5 -50.2 87C-64.8 78.5 -76.3 64.1 -84.1 48.6C-92 33.1 -96.2 16.5 -100.4 0L0 0Z" fill="#e7d800"></path><path d="M0 50.2C-8.9 49 -17.8 47.7 -25.1 43.5C-32.4 39.3 -38.1 32 -42.1 24.3C-46 16.5 -48.1 8.3 -50.2 0L0 0Z" fill="#ffee0c"></path></g><g transform="translate(0, 600)"><path d="M0 -351.5C57.6 -336.3 115.2 -321 169.5 -293.6C223.8 -266.2 274.7 -226.7 304.4 -175.8C334.2 -124.8 342.9 -62.4 351.5 0L0 0Z" fill="#301800"></path><path d="M0 -301.3C49.4 -288.2 98.8 -275.1 145.3 -251.6C191.8 -228.2 235.4 -194.3 261 -150.7C286.5 -107 293.9 -53.5 301.3 0L0 0Z" fill="#403b00"></path><path d="M0 -251.1C41.2 -240.2 82.3 -229.3 121.1 -209.7C159.8 -190.1 196.2 -161.9 217.5 -125.6C238.7 -89.2 244.9 -44.6 251.1 0L0 0Z" fill="#605f00"></path><path d="M0 -200.9C32.9 -192.1 65.9 -183.4 96.9 -167.8C127.9 -152.1 157 -129.6 174 -100.4C191 -71.3 195.9 -35.7 200.9 0L0 0Z" fill="#8a8600"></path><path d="M0 -150.7C24.7 -144.1 49.4 -137.6 72.6 -125.8C95.9 -114.1 117.7 -97.2 130.5 -75.3C143.2 -53.5 146.9 -26.7 150.7 0L0 0Z" fill="#b8ae00"></path><path d="M0 -100.4C16.5 -96.1 32.9 -91.7 48.4 -83.9C63.9 -76.1 78.5 -64.8 87 -50.2C95.5 -35.7 98 -17.8 100.4 0L0 0Z" fill="#e7d800"></path><path d="M0 -50.2C8.2 -48 16.5 -45.9 24.2 -41.9C32 -38 39.2 -32.4 43.5 -25.1C47.7 -17.8 49 -8.9 50.2 0L0 0Z" fill="#ffee0c"></path></g></svg>