<svg xmlns="http://www.w3.org/2000/svg" version="1.1" xmlns:xlink="http://www.w3.org/1999/xlink" xmlns:svgjs="http://svgjs.com/svgjs" width="1440" height="560" preserveAspectRatio="none" viewBox="0 0 1440 560"><g mask="url(&quot;#SvgjsMask1009&quot;)" fill="none"><rect width="1440" height="560" x="0" y="0" fill="rgba(65, 66, 69, 1)"></rect><path d="M1512 560L0 560 L0 374.18Q13.75 267.93, 120 281.67Q185.55 227.22, 240 292.76Q300.9 281.66, 312 342.57Q342.16 300.73, 384 330.89Q419.7 246.59, 504 282.29Q578.58 236.87, 624 311.45Q678.23 293.68, 696 347.91Q700.2 280.11, 768 284.3Q850.83 247.13, 888 329.96Q906.58 276.54, 960 295.12Q1013.33 228.45, 1080 281.78Q1145.7 275.48, 1152 341.17Q1193.94 263.11, 1272 305.05Q1365.45 278.5, 1392 371.95Q1441.41 301.36, 1512 350.77z" fill="rgba(8, 20, 43, 1)"></path><path d="M1464 560L0 560 L0 410.04Q30.16 320.2, 120 350.35Q171.08 329.43, 192 380.51Q254.16 370.67, 264 432.83Q283.53 332.36, 384 351.89Q449.05 296.94, 504 361.99Q582.87 320.86, 624 399.73Q670.04 373.77, 696 419.82Q762.04 365.86, 816 431.89Q863.88 359.77, 936 407.65Q945.91 345.56, 1008 355.47Q1079.99 307.46, 1128 379.45Q1183.37 362.81, 1200 418.18Q1245.24 391.42, 1272 436.66Q1272.9 365.56, 1344 366.46Q1397.14 299.6, 1464 352.74z" fill="rgba(227, 236, 48, 1)"></path><path d="M1488 560L0 560 L0 450.11Q39.12 417.23, 72 456.34Q125.86 438.2, 144 492.06Q209.62 437.68, 264 503.3Q305.25 424.55, 384 465.79Q427.24 437.03, 456 480.28Q529.47 433.75, 576 507.21Q592.26 451.47, 648 467.73Q691.68 439.41, 720 483.09Q727.23 418.32, 792 425.55Q857.58 419.13, 864 484.7Q910.37 459.07, 936 505.44Q1001.24 450.68, 1056 515.92Q1070.1 458.02, 1128 472.12Q1195.82 419.94, 1248 487.75Q1321.92 441.68, 1368 515.6Q1405.21 432.81, 1488 470.03z" fill="rgba(238, 254, 84, 1)"></path><path d="M1464 560L0 560 L0 494.37Q79.19 501.56, 72 580.75Q120.81 509.56, 192 558.37Q215.98 510.35, 264 534.33Q349.44 499.77, 384 585.2Q426.13 507.33, 504 549.45Q529.03 502.49, 576 527.52Q621.39 452.91, 696 498.31Q738.61 468.91, 768 511.52Q838.59 462.11, 888 532.69Q969.49 494.18, 1008 575.68Q1015.71 511.38, 1080 519.09Q1152.14 471.24, 1200 543.38Q1212.49 483.87, 1272 496.36Q1349.34 453.69, 1392 531.03Q1418.6 485.63, 1464 512.22z" fill="rgba(242, 252, 180, 1)"></path></g><defs><mask id="SvgjsMask1009"><rect width="1440" height="560" fill="#ffffff"></rect></mask></defs></svg>