<svg id="visual" viewBox="0 0 900 600" width="900" height="600" xmlns="http://www.w3.org/2000/svg" xmlns:xlink="http://www.w3.org/1999/xlink" version="1.1"><rect x="0" y="0" width="900" height="600" fill="#1c1b1d"></rect><path d="M484 600L522 600L522 514L568 514L568 429L526 429L526 343L449 343L449 257L450 257L450 171L608 171L608 86L488 86L488 0L900 0L900 86L900 86L900 171L900 171L900 257L900 257L900 343L900 343L900 429L900 429L900 514L900 514L900 600L900 600Z" fill="#1d1d1e"></path><path d="M756 600L708 600L708 514L605 514L605 429L605 429L605 343L730 343L730 257L756 257L756 171L648 171L648 86L607 86L607 0L900 0L900 86L900 86L900 171L900 171L900 257L900 257L900 343L900 343L900 429L900 429L900 514L900 514L900 600L900 600Z" fill="#eef185"></path></svg>