<svg width="1920" height="1080" viewBox="0 0 1920 1080" xmlns="http://www.w3.org/2000/svg"><rect width="1920" height="1080" fill="#171617"/><path d="M 0,1080 C 0,1080 0,154 0,154 C 118.51674641148324,163.89473684210526 237.03349282296648,173.78947368421055 329,181 C 420.9665071770335,188.21052631578945 486.38277511961724,192.73684210526315 625,184 C 763.6172248803828,175.26315789473685 975.4354066985645,153.26315789473688 1141,138 C 1306.5645933014355,122.73684210526314 1425.8755980861245,114.21052631578948 1548,118 C 1670.1244019138755,121.78947368421052 1795.0622009569379,137.89473684210526 1920,154 C 1920,154 1920,1080 1920,1080 Z" fill="#4d4d42" opacity="0.08571428571428572"/><path d="M 0,1080 C 0,1080 0,308 0,308 C 214.54545454545456,295.27272727272725 429.0909090909091,282.54545454545456 479,298 C 528.9090909090909,313.45454545454544 414.18181818181824,357.0909090909091 552,351 C 689.8181818181818,344.9090909090909 1080.1818181818182,289.0909090909091 1230,275 C 1379.8181818181818,260.9090909090909 1289.090909090909,288.54545454545456 1364,301 C 1438.909090909091,313.45454545454544 1679.4545454545455,310.72727272727275 1920,308 C 1920,308 1920,1080 1920,1080 Z" fill="#4d4d42" opacity="0.17142857142857143"/><path d="M 0,1080 C 0,1080 0,462 0,462 C 132.0956937799043,472.6794258373206 264.1913875598086,483.3588516746412 407,493 C 549.8086124401914,502.6411483253588 703.3301435406698,511.2440191387559 760,511 C 816.6698564593302,510.7559808612441 776.4880382775118,501.66507177033503 953,496 C 1129.5119617224882,490.33492822966497 1522.7177033492824,488.0956937799043 1720,483 C 1917.2822966507176,477.9043062200957 1918.6411483253587,469.95215311004785 1920,462 C 1920,462 1920,1080 1920,1080 Z" fill="#4d4d42" opacity="0.2571428571428571"/><path d="M 0,1080 C 0,1080 0,617 0,617 C 107.28229665071774,620.2057416267943 214.56459330143548,623.4114832535886 380,615 C 545.4354066985645,606.5885167464114 769.0239234449759,586.5598086124403 911,581 C 1052.976076555024,575.4401913875597 1113.33971291866,584.3492822966506 1239,605 C 1364.66028708134,625.6507177033494 1555.6172248803828,658.0430622009569 1680,662 C 1804.3827751196172,665.9569377990431 1862.1913875598086,641.4784688995215 1920,617 C 1920,617 1920,1080 1920,1080 Z" fill="#4d4d42" opacity="0.34285714285714286"/><path d="M 0,1080 C 0,1080 0,771 0,771 C 62.794258373205736,770.6937799043062 125.58851674641147,770.3875598086124 221,763 C 316.41148325358853,755.6124401913876 444.44019138755993,741.1435406698565 637,745 C 829.5598086124401,748.8564593301435 1086.6507177033493,771.0382775119617 1260,786 C 1433.3492822966507,800.9617224880383 1522.956937799043,808.7033492822966 1619,805 C 1715.043062200957,801.2966507177034 1817.5215311004786,786.1483253588517 1920,771 C 1920,771 1920,1080 1920,1080 Z" fill="#4d4d42" opacity="0.4285714285714286"/><path d="M 0,1080 C 0,1080 0,925 0,925 C 127.62679425837325,938.2631578947369 255.2535885167465,951.5263157894736 414,957 C 572.7464114832535,962.4736842105264 762.6124401913873,960.1578947368421 909,938 C 1055.3875598086127,915.8421052631579 1158.2966507177034,873.8421052631579 1278,869 C 1397.7033492822966,864.1578947368421 1534.200956937799,896.4736842105264 1644,912 C 1753.799043062201,927.5263157894736 1836.8995215311006,926.2631578947369 1920,925 C 1920,925 1920,1080 1920,1080 Z" fill="#4d4d42" opacity="0.5142857142857142"/><path d="M 0,1080 C 0,1080 0,1079 0,1079 C 102.2488038277512,1102.7894736842104 204.4976076555024,1126.578947368421 374,1111 C 543.5023923444976,1095.421052631579 780.2583732057416,1040.4736842105265 890,1047 C 999.7416267942584,1053.5263157894735 982.4688995215311,1121.5263157894735 1034,1121 C 1085.531100478469,1120.4736842105265 1205.8660287081339,1051.421052631579 1365,1033 C 1524.1339712918661,1014.578947368421 1722.066985645933,1046.7894736842104 1920,1079 C 1920,1079 1920,1080 1920,1080 Z" fill="#4d4d42" opacity="0.6"/></svg>