<svg xmlns="http://www.w3.org/2000/svg" version="1.1" xmlns:xlink="http://www.w3.org/1999/xlink" xmlns:svgjs="http://svgjs.com/svgjs" width="1440" height="560" preserveAspectRatio="none" viewBox="0 0 1440 560"><g mask="url(&quot;#SvgjsMask1037&quot;)" fill="none"><rect width="1440" height="560" x="0" y="0" fill="rgba(223, 245, 141, 1)"></rect><path d="M0,435.356C88.424,436.02,177.693,438.7,257.604,400.84C344.158,359.832,417.186,294.934,467.889,213.678C523.238,124.976,588.25,19.816,557.766,-80.195C527.101,-180.801,398.532,-207.707,318.609,-276.076C253.225,-332.008,210.784,-413.739,130.794,-445.443C47.079,-478.623,-45.835,-475.062,-133.702,-455.348C-225.794,-434.686,-308.981,-390.998,-381.437,-330.517C-464.157,-261.468,-569.516,-190.603,-579.404,-83.306C-589.304,24.119,-490.36,106.961,-429.994,196.371C-379.329,271.413,-334.271,353.003,-255.129,396.989C-178.406,439.631,-87.775,434.697,0,435.356" fill="#d3f162"></path><path d="M1440 932.9169999999999C1532.151 944.9159999999999 1632.138 1030.821 1709.2350000000001 978.938 1786.857 926.701 1742.758 800.232 1770.1190000000001 710.76 1792.7269999999999 636.8340000000001 1857.0439999999999 577.535 1855.625 500.242 1854.135 419.113 1812.1689999999999 344.74199999999996 1762.223 280.792 1710.426 214.473 1646.767 154.47899999999998 1566.313 129.817 1485.409 105.017 1393.988 107.322 1318.037 144.63099999999997 1246.547 179.748 1227.247 270.882 1168.859 325.055 1100 388.943 972.381 398.709 946.7819999999999 489.086 921.795 577.304 1003.566 659.366 1052.1399999999999 737.13 1095.185 806.042 1139.811 877.624 1212.345 914.238 1281.721 949.258 1362.937 922.883 1440 932.9169999999999" fill="#ebf9b8"></path></g><defs><mask id="SvgjsMask1037"><rect width="1440" height="560" fill="#ffffff"></rect></mask></defs></svg>