<svg id="visual" viewBox="0 0 900 600" width="900" height="600" xmlns="http://www.w3.org/2000/svg" xmlns:xlink="http://www.w3.org/1999/xlink" version="1.1"><path d="M0 49L25 50C50 51 100 53 150 57C200 61 250 67 300 67C350 67 400 61 450 61C500 61 550 67 600 68C650 69 700 65 750 61C800 57 850 53 875 51L900 49L900 0L875 0C850 0 800 0 750 0C700 0 650 0 600 0C550 0 500 0 450 0C400 0 350 0 300 0C250 0 200 0 150 0C100 0 50 0 25 0L0 0Z" fill="#434343"></path><path d="M0 175L25 172C50 169 100 163 150 162C200 161 250 165 300 164C350 163 400 157 450 161C500 165 550 179 600 187C650 195 700 197 750 193C800 189 850 179 875 174L900 169L900 47L875 49C850 51 800 55 750 59C700 63 650 67 600 66C550 65 500 59 450 59C400 59 350 65 300 65C250 65 200 59 150 55C100 51 50 49 25 48L0 47Z" fill="#393939"></path><path d="M0 211L25 207C50 203 100 195 150 192C200 189 250 191 300 189C350 187 400 181 450 186C500 191 550 207 600 217C650 227 700 231 750 228C800 225 850 215 875 210L900 205L900 167L875 172C850 177 800 187 750 191C700 195 650 193 600 185C550 177 500 163 450 159C400 155 350 161 300 162C250 163 200 159 150 160C100 161 50 167 25 170L0 173Z" fill="#303030"></path><path d="M0 253L25 250C50 247 100 241 150 238C200 235 250 235 300 234C350 233 400 231 450 236C500 241 550 253 600 261C650 269 700 273 750 272C800 271 850 265 875 262L900 259L900 203L875 208C850 213 800 223 750 226C700 229 650 225 600 215C550 205 500 189 450 184C400 179 350 185 300 187C250 189 200 187 150 190C100 193 50 201 25 205L0 209Z" fill="#272727"></path><path d="M0 289L25 288C50 287 100 285 150 282C200 279 250 275 300 273C350 271 400 271 450 278C500 285 550 299 600 307C650 315 700 317 750 314C800 311 850 303 875 299L900 295L900 257L875 260C850 263 800 269 750 270C700 271 650 267 600 259C550 251 500 239 450 234C400 229 350 231 300 232C250 233 200 233 150 236C100 239 50 245 25 248L0 251Z" fill="#212121"></path><path d="M0 415L25 417C50 419 100 423 150 424C200 425 250 423 300 420C350 417 400 413 450 415C500 417 550 425 600 428C650 431 700 429 750 429C800 429 850 431 875 432L900 433L900 293L875 297C850 301 800 309 750 312C700 315 650 313 600 305C550 297 500 283 450 276C400 269 350 269 300 271C250 273 200 277 150 280C100 283 50 285 25 286L0 287Z" fill="#212121"></path><path d="M0 451L25 453C50 455 100 459 150 459C200 459 250 455 300 453C350 451 400 451 450 453C500 455 550 459 600 461C650 463 700 463 750 463C800 463 850 463 875 463L900 463L900 431L875 430C850 429 800 427 750 427C700 427 650 429 600 426C550 423 500 415 450 413C400 411 350 415 300 418C250 421 200 423 150 422C100 421 50 417 25 415L0 413Z" fill="#272727"></path><path d="M0 475L25 478C50 481 100 487 150 488C200 489 250 485 300 483C350 481 400 481 450 482C500 483 550 485 600 487C650 489 700 491 750 491C800 491 850 489 875 488L900 487L900 461L875 461C850 461 800 461 750 461C700 461 650 461 600 459C550 457 500 453 450 451C400 449 350 449 300 451C250 453 200 457 150 457C100 457 50 453 25 451L0 449Z" fill="#303030"></path><path d="M0 571L25 571C50 571 100 571 150 570C200 569 250 567 300 567C350 567 400 569 450 570C500 571 550 571 600 571C650 571 700 571 750 571C800 571 850 571 875 571L900 571L900 485L875 486C850 487 800 489 750 489C700 489 650 487 600 485C550 483 500 481 450 480C400 479 350 479 300 481C250 483 200 487 150 486C100 485 50 479 25 476L0 473Z" fill="#393939"></path><path d="M0 601L25 601C50 601 100 601 150 601C200 601 250 601 300 601C350 601 400 601 450 601C500 601 550 601 600 601C650 601 700 601 750 601C800 601 850 601 875 601L900 601L900 569L875 569C850 569 800 569 750 569C700 569 650 569 600 569C550 569 500 569 450 568C400 567 350 565 300 565C250 565 200 567 150 568C100 569 50 569 25 569L0 569Z" fill="#434343"></path></svg>