<svg id="visual" viewBox="0 0 900 600" width="900" height="600" xmlns="http://www.w3.org/2000/svg" xmlns:xlink="http://www.w3.org/1999/xlink" version="1.1"><rect x="0" y="0" width="900" height="600" fill="#262626"></rect><path d="M0 421L21.5 437.5C43 454 86 487 128.8 498.3C171.7 509.7 214.3 499.3 257.2 476.5C300 453.7 343 418.3 385.8 409.5C428.7 400.7 471.3 418.3 514.2 439.5C557 460.7 600 485.3 642.8 484.7C685.7 484 728.3 458 771.2 440.3C814 422.7 857 413.3 878.5 408.7L900 404L900 601L878.5 601C857 601 814 601 771.2 601C728.3 601 685.7 601 642.8 601C600 601 557 601 514.2 601C471.3 601 428.7 601 385.8 601C343 601 300 601 257.2 601C214.3 601 171.7 601 128.8 601C86 601 43 601 21.5 601L0 601Z" fill="#020305" stroke-linecap="round" stroke-linejoin="miter"></path></svg>